<?xml version="1.0" encoding="utf-8" ?>
<svg baseProfile="full" height="200mm" version="1.1" viewBox="0,0,200,200" width="200mm" xmlns="http://www.w3.org/2000/svg" xmlns:ev="http://www.w3.org/2001/xml-events" xmlns:xlink="http://www.w3.org/1999/xlink"><defs /><rect fill="#1a1a1a" height="200" width="200" x="0" y="0" /><rect fill="#1a1a1a" height="200" width="180" x="10" y="0" /><text alignment-baseline="middle" fill="#e1ed5e" style="dominant-baseline: central; font-size:9.0px; font-family:Arial;" text-anchor="middle" x="100.0" y="100.0">2025</text><line stroke="#e1ed5e" stroke-width="0.3" x1="100.0" x2="100.0" y1="15.0" y2="10.0" /><path d="M 100.0 14.0 a86.0,86.0 0 0,1 42.46469731375804,11.215312516191453" fill="none" id="id25" stroke="none" /><text fill="#e1ed5e" style="font-size:6.75px; font-family:Arial;" text-anchor="middle"><textPath startOffset="22.20632615414155" xlink:href="#id25">January</textPath></text><line stroke="#e1ed5e" stroke-width="0.3" x1="143.23703022742887" x2="145.7803849466894" y1="26.81831364943548" y2="22.513508569990506" /><path d="M 143.74570117128098 25.957352633546492 a86.0,86.0 0 0,1 28.547481713284135,27.462654790039103" fill="none" id="id26" stroke="none" /><text fill="#e1ed5e" style="font-size:6.75px; font-family:Arial;" text-anchor="middle"><textPath startOffset="19.985693538727396" xlink:href="#id26">February</textPath></text><path d="M 117.45458315368197 88.32363383020206 l 0.47699407333056026 -0.31908854035601514 a21.57388225497833,21.57388225497833 0 0,0 0.20382527751331708,0.31043988130128836 l -0.48241598620180226 0.3108305950770528" fill="#ff0500" stroke="none" /><path d="M 117.65298651832404 88.62581576622439 l 1.126126402977081 -0.7255865269417545 a22.33964043069829,22.33964043069829 0 0,0 0.20549533528566774,0.32504427061041363 l -1.1384493345087046 0.7060946086171347" fill="#ff1001" stroke="none" /><line stroke="#e1ed5e" stroke-width="0.3" x1="172.23445277983987" x2="176.4835382374775" y1="55.19839476539836" y2="52.563006222186495" /><path d="M 173.08426987136738 54.67131705675599 a86.0,86.0 0 0,1 12.851231095245387,41.99856678651699" fill="none" id="id27" stroke="none" /><text fill="#e1ed5e" style="font-size:6.75px; font-family:Arial;" text-anchor="middle"><textPath startOffset="22.20632615414155" xlink:href="#id27">March</textPath></text><path d="M 118.56541770881063 90.18545643968196 l 1.445853329778053 -0.7643453387102207 a22.63545579213818,22.63545579213818 0 0,0 0.17913329660831295,0.3460285120641157 l -1.4587960595464824 0.7393441043857601" fill="#ff1402" stroke="none" /><path d="M 118.89224826269711 90.83032412892265 l 0.3340344748368662 -0.16212934646150592 a21.37130170395997,21.37130170395997 0 0,0 0.15778310553022415,0.332331459955351 l -0.3367757742088465 0.15635547086561458" fill="#ff0200" stroke="none" /><path d="M 119.97218684219823 93.5106431181261 l 1.6730567791045232 -0.5436091004470464 a22.759156002234153,22.759156002234153 0 0,0 0.11785397187175617,0.37362929733549466 l -1.6821662347444855 0.5147296366851326" fill="#ff1602" stroke="none" /><path d="M 120.6074358757038 95.95851677861258 l 2.200588536294676 -0.43157439383800655 a23.242508943903722,23.242508943903722 0 0,0 0.07361707890106557,0.39326537916864046 l -2.207691339105601 0.3936309372068033" fill="#ff1c02" stroke="none" /><path d="M 120.91429891909075 98.10471618934814 l 1.6125828079466105 -0.14613457047068001 a22.61919073156056,22.61919073156056 0 0,0 0.03180206104450599,0.38806569640972843 l -1.6148593528106112 0.1183549568531828" fill="#ff1402" stroke="none" /><line stroke="#e1ed5e" stroke-width="0.3" x1="184.98032266829074" x2="189.97916517819016" y1="98.17113171792111" y2="98.06355123074" /><path d="M 185.9800911702706 98.14961562048488 a86.0,86.0 0 0,1 -9.607161424134198,41.387399972396054" fill="none" id="id28" stroke="none" /><text fill="#e1ed5e" style="font-size:6.75px; font-family:Arial;" text-anchor="middle"><textPath startOffset="21.466115282336823" xlink:href="#id28">April</textPath></text><path d="M 120.64145759157962 103.86396538481128 l 2.3384741872747927 0.4377492855248025 a23.379093516768094,23.379093516768094 0 0,0 -0.07745167156808441,0.3949244046984898 l -2.3305925827310445 -0.4779374172912373" fill="#ff1e03" stroke="none" /><path d="M 120.13307415673323 105.97154293290107 l 3.7863720274050725 1.1230516981940049 a24.949412392588552,24.949412392588552 0 0,0 -0.12566570823045625,0.41068280546634806 l -3.7664795466684833 -1.18806147621241" fill="#ff3405" stroke="none" /><path d="M 119.54520255179757 107.68017299344265 l 3.030907579168156 1.1909774008971346 a24.25650547718051,24.25650547718051 0 0,0 -0.15604716558182516,0.38729626763918484 l -3.0099577993289386 -1.242973036379133" fill="#ff2b04" stroke="none" /><path d="M 119.41010516605496 108.01547362559984 l 1.5042242886621418 0.6211748988276413 a22.627436316890666,22.627436316890666 0 0,0 -0.15176439063655073,0.3587261889885478 l -1.493308916833282 -0.6469756134823527" fill="#ff1402" stroke="none" /><path d="M 118.97047184881838 109.00673069616215 l 2.919181173658813 1.3859580770569593 a24.23148549679609,24.23148549679609 0 0,0 -0.18213624157414499,0.37525460461549254 l -2.894891675469954 -1.4360016376377274" fill="#ff2a04" stroke="none" /><path d="M 118.64920377521936 109.65438752849418 l 3.5490450201571404 1.8372825131654429 a24.99641434141728,24.99641434141728 0 0,0 -0.2010991193501791,0.38040374762869417 l -3.5168933925820682 -1.8981012758802713" fill="#ff3505" stroke="none" /><line stroke="#e1ed5e" stroke-width="0.3" x1="174.80103733775053" x2="179.2010983576182" y1="140.37084112569926" y2="142.7455964860345" /><path d="M 175.68104954172406 140.8457921977663 a86.0,86.0 0 0,1 -30.038265399797805,32.042727171017184" fill="none" id="id29" stroke="none" /><text fill="#e1ed5e" style="font-size:6.75px; font-family:Arial;" text-anchor="middle"><textPath startOffset="22.206326154141568" xlink:href="#id29">May</textPath></text><path d="M 118.48025628344425 109.97397251340804 l 1.4395660000705355 0.776947651359318 a22.635847768440524,22.635847768440524 0 0,0 -0.18801075442287765,0.3412941306927393 l -1.4259788361961483 -0.8016123004498623" fill="#ff1402" stroke="none" /><path d="M 117.75023020441432 111.22182372390056 l 3.014349348654456 1.9056934272572077 a24.56622621750568,24.56622621750568 0 0,0 -0.22904512469365776,0.3554831199496801 l -2.981099360583748 -1.9572981471283408" fill="#ff2f04" stroke="none" /><path d="M 117.55443506779139 111.5257021239791 l 3.331982591309373 2.187677283912023 a24.985980417329394,24.985980417329394 0 0,0 -0.2391478320072259,0.3574935608468605 l -3.293831653891426 -2.2447077589646907" fill="#ff3505" stroke="none" /><path d="M 117.14729908036423 112.12312394758627 l 2.638320390004992 1.865289976664667 a24.231105256311185,24.231105256311185 0 0,0 -0.2437190039622224,0.33850438023705504 l -2.605821593667167 -1.9104279623528533" fill="#ff2a04" stroke="none" /><path d="M 116.0416608686014 113.55231037782055 l 1.2505647223017102 1.0565016554712499 a22.63710350090611,22.63710350090611 0 0,0 -0.2540287143623844,0.29549278467852924 l -1.232193498368547 -1.077871539311307" fill="#ff1402" stroke="none" /><path d="M 115.80600337817218 113.82643327865902 l 2.4349307620537948 2.1299759916655403 a24.235071180216515,24.235071180216515 0 0,0 -0.27736594696703054,0.31162358175367444 l -2.397905965438426 -2.1715737431600814" fill="#ff2a04" stroke="none" /><path d="M 115.07121518719521 114.62390073753431 l 2.620809102755786 2.543023352442734 a24.651795191978415,24.651795191978415 0 0,0 -0.2981216427720853,0.30199565017039015 l -2.5766468349281655 -2.587759496593789" fill="#ff3004" stroke="none" /><path d="M 114.81725581225074 114.88116024355365 l 6.9029928220807175 6.932764315275729 a30.78338034387187,30.78338034387187 0 0,0 -0.37870894180349224,0.3706464072211106 l -6.782633927901431 -7.050560825419411" fill="#ff840c" stroke="none" /><path d="M 114.55890576462653 115.13401014063108 l 2.723880712863777 2.831479164492503 a24.928969381003935,24.928969381003935 0 0,0 -0.3118069972361192,0.29483297789823065 l -2.67473788123685 -2.877946779136655" fill="#ff3405" stroke="none" /><path d="M 113.75828350139079 115.86535959552629 l 2.12135505357939 2.446239805381372 a24.237937066834238,24.237937066834238 0 0,0 -0.3175568220780457,0.270628813023038 l -2.078932754924297 -2.482393008627357" fill="#ff2b04" stroke="none" /><line stroke="#e1ed5e" stroke-width="0.3" x1="143.8653032363475" x2="146.44561519142675" y1="172.8068346515853" y2="177.08958963109032" /><path d="M 144.38136562736335 173.6633856474863 a86.0,86.0 0 0,1 -40.68145358897372,12.25698825130547" fill="none" id="id30" stroke="none" /><text fill="#e1ed5e" style="font-size:6.75px; font-family:Arial;" text-anchor="middle"><textPath startOffset="21.466115282336833" xlink:href="#id30">June</textPath></text><path d="M 110.8373102113329 117.98757091392108 l 1.607761906555085 2.668534049769867 a24.11544095160714,24.11544095160714 0 0,0 -0.35740476325990617,0.21116103390225244 l -1.5615892722667968 -2.695813655965869" fill="#ff2904" stroke="none" /><path d="M 109.89434966115114 118.52300852407294 l 1.8797713962098421 3.5190813734848767 a24.98967094071891,24.98967094071891 0 0,0 -0.38116280691340637,0.19940636571031398 l -1.8189176867699404 -3.5509171581399075" fill="#ff3505" stroke="none" /><path d="M 109.57404056367764 118.69057910512821 l 1.817582930906079 3.548311428626479 a24.986743245462694,24.986743245462694 0 0,0 -0.38449373521454516,0.1927931407955825 l -1.7562352880087733 -3.5790724103313636" fill="#ff3505" stroke="none" /><path d="M 109.2508944713604 118.85261126421891 l 1.7616977494372674 3.5902044864971883 a24.999143310164925,24.999143310164925 0 0,0 -0.38794781502997516,0.18623852676428262 l -1.6996372664070596 -3.619997289761031" fill="#ff3505" stroke="none" /><path d="M 108.92500713936063 119.00905698771935 l 1.3717438003651197 2.9216285955328973 a24.22762988957465,24.22762988957465 0 0,0 -0.3790262764489112,0.17399237345278568 l -1.321249528148789 -2.9448080393197573" fill="#ff2a04" stroke="none" /><path d="M 107.59598834532513 119.57807347666477 l 1.1643766471645378 3.0010909069824487 a24.219055701356357,24.219055701356357 0 0,0 -0.38996114084258254,0.14744993581825658 l -1.1125452855616806 -3.0206890929073364" fill="#ff2a04" stroke="none" /><path d="M 107.2578585660854 119.70592522655815 l 1.1120720805444393 3.019404286569257 a24.217686522655562,24.217686522655562 0 0,0 -0.3924192862124088,0.14070759442631536 l -1.0599332337022958 -3.0380994220355326" fill="#ff2a04" stroke="none" /><path d="M 106.57524785965236 119.94407469862006 l 1.004624187269709 3.0472311101602902 a24.20856466295695,24.20856466295695 0 0,0 -0.3968805752115148,0.12706862710724592 l -0.9520222669672539 -3.0640725839272425" fill="#ff2a04" stroke="none" /><path d="M 106.2309692047433 120.05430185196036 l 1.1838208701800077 3.8101136900448354 a24.989786734117605,24.989786734117605 0 0,0 -0.4118852653371077,0.12409765169971856 l -1.1180606304026541 -3.8299267108502795" fill="#ff3505" stroke="none" /><path d="M 105.88484417918355 120.15858648285463 l 1.1203085911132176 3.837627120413246 a24.997808556528607,24.997808556528607 0 0,0 -0.4140932601192523,0.1170268915754772 l -1.0540841628893596 -3.856342805327242" fill="#ff3505" stroke="none" /><path d="M 105.53697534728816 120.25689768951611 l 0.06736789804887675 0.2464639144550679 a21.25550517571282,21.25550517571282 0 0,0 -0.3537620096086339,0.09343176203051132 l -0.06311544562874541 -0.2475870257891632" fill="#ff0000" stroke="none" /><path d="M 104.13013068566511 120.58985236759428 l 0.7810015937125334 3.893510578057486 a24.97106888769599,24.97106888769599 0 0,0 -0.42216848351871444,0.0809095946358208 l -0.7138654956221147 -3.9063773710417746" fill="#ff3505" stroke="none" /><path d="M 102.70371172650421 120.8252237178851 l 0.5152617655279607 3.968781669733063 a25.002089782729037,25.002089782729037 0 0,0 -0.42726497092517735,0.051735837727133145 l -0.446869371551403 -3.9770630361855472" fill="#ff3505" stroke="none" /><path d="M 102.34483914955558 120.86867818915974 l 0.4455939934487235 3.9657123833276042 a24.990667702813088,24.990667702813088 0 0,0 -0.4278966426187015,0.04435323657124405 l -0.3772647542244194 -3.9727949883546065" fill="#ff3505" stroke="none" /><line stroke="#e1ed5e" stroke-width="0.3" x1="102.19456741930631" x2="102.32365962044197" y1="184.97166512339345" y2="189.96999836594603" /><path d="M 102.22038585953345 185.97133177190398 a86.0,86.0 0 0,1 -42.740103519485714,-10.115201625700543" fill="none" id="id31" stroke="none" /><text fill="#e1ed5e" style="font-size:6.75px; font-family:Arial;" text-anchor="middle"><textPath startOffset="22.20632615414155" xlink:href="#id31">July</textPath></text><path d="M 96.58105272829116 120.7198165907248 l -0.5638128379415204 3.416870067085136 a24.463074641351245,24.463074641351245 0 0,0 -0.4148832949749171,-0.0721327788351998 l 0.6225451043884874 -3.40665870972893" fill="#ff2e04" stroke="none" /><path d="M 94.11515582081647 120.15858648285463 l -7.0794906290035975 24.250858604573605 a46.2630823658787,46.2630823658787 0 0,0 -0.762514788874418,-0.2297394508836703 l 7.495880392318262 -24.125403784584208" fill="#bdff1f" stroke="none" /><line stroke="#e1ed5e" stroke-width="0.3" x1="58.666819895761336" x2="56.23545636021788" y1="174.27360380694188" y2="178.64263932499728" /><path d="M 58.180547188652646 175.14741091055294 a86.0,86.0 0 0,1 -31.652253787137756,-30.449443065178592" fill="none" id="id32" stroke="none" /><text fill="#e1ed5e" style="font-size:6.75px; font-family:Arial;" text-anchor="middle"><textPath startOffset="22.20632615414155" xlink:href="#id32">August</textPath></text><path d="M 89.1626897886671 117.98757091392108 l -4.364357314494605 7.24388110677755 a29.457034247164387,29.457034247164387 0 0,0 -0.4320656788777598,-0.2654100291711879 l 4.488402193304673 -7.167682610777985" fill="#ff720a" stroke="none" /><path d="M 85.44109423537348 115.13401014063109 l -1.302081900631679 1.3535166039724378 a22.878143890435897,22.878143890435897 0 0,0 -0.28145569350702604,-0.2754636346675885 l 1.3251875465144993 -1.3309028663822797" fill="#ff1702" stroke="none" /><path d="M 83.72743513129214 113.27417163493432 l -11.218281845810209 9.151194041740345 a35.47736854409733,35.47736854409733 0 0,0 -0.38194274072612966,-0.47653229543695425 l 11.3741424985912 -8.95673391272513" fill="#ffc111" stroke="none" /><line stroke="#e1ed5e" stroke-width="0.3" x1="26.63291911575756" x2="22.317208475507996" y1="142.92168965132927" y2="145.44649492493687" /><path d="M 25.769776987707644 143.4266507060508 a86.0,86.0 0 0,1 -11.730757126820373,-40.83630448921669" fill="none" id="id33" stroke="none" /><text fill="#e1ed5e" style="font-size:6.75px; font-family:Arial;" text-anchor="middle"><textPath startOffset="21.46611528233685" xlink:href="#id33">September</textPath></text><line stroke="#e1ed5e" stroke-width="0.3" x1="15.007084014347285" x2="10.007500721073583" y1="101.09737516637583" y2="101.16192664675087" /><path d="M 14.007167355692545 101.11028546245083 a86.0,86.0 0 0,1 10.666146001902534,-42.60595125391555" fill="none" id="id34" stroke="none" /><text fill="#e1ed5e" style="font-size:6.75px; font-family:Arial;" text-anchor="middle"><textPath startOffset="22.20632615414155" xlink:href="#id34">October</textPath></text><path d="M 79.05617556472873 98.46500227214037 l -62.831473305813795 -4.604993183578899 a84.0,84.0 0 0,0 0.11810206472201168,-1.4411443311688865 l 62.742896757272284 5.685851431955563" fill="#4dd2ff" stroke="none" /><line stroke="#e1ed5e" stroke-width="0.3" x1="26.266209847984243" x2="21.928928074336255" y1="57.711370442889674" y2="55.22380399835377" /><path d="M 25.398753493254645 57.213857153982495 a86.0,86.0 0 0,1 29.58750427330803,-30.492523968695096" fill="none" id="id35" stroke="none" /><text fill="#e1ed5e" style="font-size:6.75px; font-family:Arial;" text-anchor="middle"><textPath startOffset="21.46611528233685" xlink:href="#id35">November</textPath></text><line stroke="#e1ed5e" stroke-width="0.3" x1="56.762969772571076" x2="54.21961505331055" y1="26.818313649435495" y2="22.513508569990535" /><path d="M 56.25429882871897 25.957352633546506 a86.0,86.0 0 0,1 42.265352541879196,-11.944610805530505" fill="none" id="id36" stroke="none" /><text fill="#e1ed5e" style="font-size:6.75px; font-family:Arial;" text-anchor="middle"><textPath startOffset="22.20632615414155" xlink:href="#id36">December</textPath></text></svg>