<?xml version="1.0" encoding="utf-8" ?>
<svg baseProfile="full" height="200mm" version="1.1" viewBox="0,0,200,200" width="200mm" xmlns="http://www.w3.org/2000/svg" xmlns:ev="http://www.w3.org/2001/xml-events" xmlns:xlink="http://www.w3.org/1999/xlink"><defs /><rect fill="#1a1a1a" height="200" width="200" x="0" y="0" /><text alignment-baseline="middle" fill="#e1ed5e" style="dominant-baseline: central; font-size:9.0px; font-family:Arial;" text-anchor="middle" x="100.0" y="100.0">2025</text><line stroke="#e1ed5e" stroke-width="0.3" x1="100.0" x2="100.0" y1="15.0" y2="10.0" /><path d="M 100.0 14.0 a86.0,86.0 0 0,1 42.46469731375804,11.215312516191453" fill="none" id="id25" stroke="none" /><text fill="#e1ed5e" style="font-size:6.75px; font-family:Arial;" text-anchor="middle"><textPath startOffset="22.20632615414155" xlink:href="#id25">January</textPath></text><line stroke="#e1ed5e" stroke-width="0.3" x1="143.23703022742887" x2="145.7803849466894" y1="26.81831364943548" y2="22.513508569990506" /><path d="M 143.74570117128098 25.957352633546492 a86.0,86.0 0 0,1 28.547481713284135,27.462654790039103" fill="none" id="id26" stroke="none" /><text fill="#e1ed5e" style="font-size:6.75px; font-family:Arial;" text-anchor="middle"><textPath startOffset="19.985693538727396" xlink:href="#id26">February</textPath></text><path d="M 117.45458315368197 88.32363383020206 l 1.1888401871487921 -0.7952830050594593 a22.430320260891378,22.430320260891378 0 0,0 0.21191671475048365,0.3227636953350934 l -1.2023535372572007 0.7747012457466919" fill="#ff0c01" stroke="none" /><path d="M 117.65298651832404 88.62581576622439 l 2.8083290284397937 -1.8094644623093992 a24.34078936365917,24.34078936365917 0 0,0 0.2239032757451865,0.35416121174090903 l -2.839059900430936 1.7608556028542839" fill="#ff2703" stroke="none" /><line stroke="#e1ed5e" stroke-width="0.3" x1="172.23445277983987" x2="176.4835382374775" y1="55.19839476539836" y2="52.563006222186495" /><path d="M 173.08426987136738 54.67131705675599 a86.0,86.0 0 0,1 12.851231095245387,41.99856678651699" fill="none" id="id27" stroke="none" /><text fill="#e1ed5e" style="font-size:6.75px; font-family:Arial;" text-anchor="middle"><textPath startOffset="22.20632615414155" xlink:href="#id27">March</textPath></text><path d="M 118.56541770881063 90.18545643968196 l 3.6042242436414154 -1.9053606223783264 a25.076865401231988,25.076865401231988 0 0,0 0.1984542131237243,0.3833503730476786 l -3.636487889925256 1.843037527070303" fill="#ff3104" stroke="none" /><path d="M 118.89224826269711 90.83032412892265 l 0.8324939381806352 -0.4040651738007234 a21.925372801516293,21.925372801516293 0 0,0 0.1618737809447581,0.3409474656306552 l -0.8393259129671495 0.3896752925295279" fill="#ff0400" stroke="none" /><path d="M 119.97218684219823 93.5106431181261 l 4.171333297276759 -1.3553483478373725 a25.385999386793767,25.385999386793767 0 0,0 0.13145658201797633,0.416753288747437 l -4.1940453630629415 1.2833448926635163" fill="#ff3605" stroke="none" /><path d="M 120.6074358757038 95.95851677861258 l 5.486547193345716 -1.0760090949209233 a26.591063912813222,26.591063912813222 0 0,0 0.08422311269654457,0.4499232358007934 l -5.50425602995212 0.981407781657567" fill="#ff4606" stroke="none" /><path d="M 120.91429891909075 98.10471618934814 l 4.0210538291217635 -0.36439367408761736 a25.03753100872425,25.03753100872425 0 0,0 0.03520219175799952,0.4295559033296325 l -4.026730504699257 0.29512385355021614" fill="#ff3104" stroke="none" /><line stroke="#e1ed5e" stroke-width="0.3" x1="184.98032266829074" x2="189.97916517819016" y1="98.17113171792111" y2="98.06355123074" /><path d="M 185.9800911702706 98.14961562048488 a86.0,86.0 0 0,1 -9.607161424134198,41.387399972396054" fill="none" id="id28" stroke="none" /><text fill="#e1ed5e" style="font-size:6.75px; font-family:Arial;" text-anchor="middle"><textPath startOffset="21.466115282336823" xlink:href="#id28">April</textPath></text><path d="M 120.64145759157962 103.86396538481128 l 5.831124030337504 1.0915537969061182 a26.932410736683668,26.932410736683668 0 0,0 -0.08922331524181076,0.4549477621812585 l -5.811470782120029 -1.1917652861553216" fill="#ff4b07" stroke="none" /><path d="M 120.13307415673323 105.97154293290107 l 9.441656258454294 2.800429545241507 a30.84821194637233,30.84821194637233 0 0,0 -0.15537690190393694,0.5077807054694439 l -9.392052584044224 -2.962537223263008" fill="#ff800b" stroke="none" /><path d="M 119.54520255179757 107.68017299344265 l 7.558164747411261 2.969936618421976 a29.120737519859517,29.120737519859517 0 0,0 -0.187339786182366,0.4649619856805902 l -7.505922346971503 -3.09959797194538" fill="#ff6909" stroke="none" /><path d="M 119.41010516605496 108.01547362559984 l 3.751004491479159 1.5489909670112598 a25.058251804777434,25.058251804777434 0 0,0 -0.16806810379709314,0.39726335086105913 l -3.7237854064897573 -1.6133288435384823" fill="#ff3104" stroke="none" /><path d="M 118.97047184881838 109.00673069616215 l 7.27983110557888 3.4562913776747943 a29.058653176129553,29.058653176129553 0 0,0 -0.2184197033816447,0.450009282745336 l -7.21925814558252 -3.581089616385406" fill="#ff6809" stroke="none" /><path d="M 118.64920377521936 109.65438752849418 l 8.849703970586503 4.581346886134867 a30.965239568525796,30.965239568525796 0 0,0 -0.24911902653893941,0.47123931525531204 l -8.769532435822672 -4.733001216476313" fill="#ff820c" stroke="none" /><line stroke="#e1ed5e" stroke-width="0.3" x1="174.80103733775053" x2="179.2010983576182" y1="140.37084112569926" y2="142.7455964860345" /><path d="M 175.68104954172406 140.8457921977663 a86.0,86.0 0 0,1 -30.038265399797805,32.042727171017184" fill="none" id="id29" stroke="none" /><text fill="#e1ed5e" style="font-size:6.75px; font-family:Arial;" text-anchor="middle"><textPath startOffset="22.206326154141568" xlink:href="#id29">May</textPath></text><path d="M 118.48025628344425 109.97397251340804 l 3.589631518467717 1.9373587438034954 a25.07907015636759,25.07907015636759 0 0,0 -0.2083038792519584,0.37813204679408324 l -3.555751229764249 -1.9988613089953837" fill="#ff3104" stroke="none" /><path d="M 117.75023020441432 111.22182372390056 l 7.516162319733578 4.75177209878088 a29.892245728461134,29.892245728461134 0 0,0 -0.2787026826843253,0.432552752700931 l -7.433254773672202 -4.880446451403264" fill="#ff740a" stroke="none" /><path d="M 117.55443506779139 111.5257021239791 l 8.308603446534448 5.45517346591949 a30.939406862335204,30.939406862335204 0 0,0 -0.2961297476077906,0.44267379326187 l -8.213470593515936 -5.597384173387167" fill="#ff820b" stroke="none" /><path d="M 117.14729908036423 112.12312394758627 l 6.578826847416499 4.651224249786883 a29.056975220893612,29.056975220893612 0 0,0 -0.29225811138543395,0.4059209550975895 l -6.497788943655463 -4.763778810335603" fill="#ff6809" stroke="none" /><path d="M 116.0416608686014 113.55231037782055 l 3.1186380195200565 2.6346866912847458 a25.08258215569864,25.08258215569864 0 0,0 -0.2814713506807956,0.32741477052568596 l -3.072824159268482 -2.6879785609719598" fill="#ff3104" stroke="none" /><path d="M 115.80600337817218 113.82643327865902 l 6.071736885025855 5.311302479051544 a29.0669649078797,29.0669649078797 0 0,0 -0.3326660849138662,0.37375387296968166 l -5.979411950463651 -5.415030521762092" fill="#ff6809" stroke="none" /><path d="M 115.07121518719521 114.62390073753431 l 6.534780662425734 6.340828032902463 a30.105463110070517,30.105463110070517 0 0,0 -0.36407450446891143,0.3688055508657173 l -6.424665532901288 -6.452374077748845" fill="#ff760a" stroke="none" /><path d="M 114.81725581225074 114.88116024355365 l 17.21390367797226 17.288144464456792 a45.396688686345016,45.396688686345016 0 0,0 -0.5584874611475465,0.5465975267618275 l -16.91376626444892 -17.58189209414119" fill="#c9ff1d" stroke="none" /><path d="M 114.55890576462653 115.13401014063108 l 6.791897067185469 7.060189876264656 a30.796741645065083,30.796741645065083 0 0,0 -0.38520002131823267,0.364230663129457 l -6.669361211476429 -7.176055176140034" fill="#ff800b" stroke="none" /><path d="M 113.75828350139079 115.86535959552629 l 5.29021090754623 6.100404776214418 a29.074730328622795,29.074730328622795 0 0,0 -0.3809267653626906,0.324634053471772 l -5.184418665606493 -6.190563219909137" fill="#ff6909" stroke="none" /><line stroke="#e1ed5e" stroke-width="0.3" x1="143.8653032363475" x2="146.44561519142675" y1="172.8068346515853" y2="177.08958963109032" /><path d="M 144.38136562736335 173.6633856474863 a86.0,86.0 0 0,1 -40.68145358897372,12.25698825130547" fill="none" id="id30" stroke="none" /><text fill="#e1ed5e" style="font-size:6.75px; font-family:Arial;" text-anchor="middle"><textPath startOffset="21.466115282336833" xlink:href="#id30">June</textPath></text><path d="M 110.8373102113329 117.98757091392108 l 4.008921731389249 6.65393557308297 a28.76828887588148,28.76828887588148 0 0,0 -0.426362656843386,0.2519025729125205 l -3.893791203517481 -6.72195671828924" fill="#ff6409" stroke="none" /><path d="M 109.89434966115114 118.52300852407294 l 4.687375873236335 8.775139976748003 a30.94859659391811,30.94859659391811 0 0,0 -0.4720531925271182,0.24695591971849604 l -4.535631778182721 -8.854525315411216" fill="#ff820b" stroke="none" /><path d="M 109.57404056367764 118.69057910512821 l 4.532029204176822 8.847492318841846 a30.940694595423253,30.940694595423253 0 0,0 -0.4761125977186741,0.23873274043153891 l -4.379062698775387 -8.924192900182687" fill="#ff820b" stroke="none" /><path d="M 109.2508944713604 118.85261126421891 l 4.393304629203463 8.95321685876786 a30.973024500376283,30.973024500376283 0 0,0 -0.4806531580186215,0.23074272509324859 l -4.238538803184609 -9.027513860360669" fill="#ff820c" stroke="none" /><path d="M 108.92500713936063 119.00905698771935 l 3.4205852124591947 7.285383442241705 a29.048429355854726,29.048429355854726 0 0,0 -0.4544447007660706,0.20861327301667276 l -3.2946725159257046 -7.343183785592452" fill="#ff6809" stroke="none" /><path d="M 107.59598834532513 119.57807347666477 l 2.9030407837033616 7.482363477305491 a29.025796471276863,29.025796471276863 0 0,0 -0.4673564834804781,0.17671423194769167 l -2.7738140794626087 -7.531225959359813" fill="#ff6809" stroke="none" /><path d="M 107.2578585660854 119.70592522655815 l 2.772775614504393 7.528406406921491 a29.022791760738077,29.022791760738077 0 0,0 -0.4702803967664603,0.16862581850537323 l -2.6427756571081975 -7.575019766466824" fill="#ff6809" stroke="none" /><path d="M 106.57524785965236 119.94407469862006 l 2.504838873014896 7.597689799340522 a28.99994425397887,28.99994425397887 0 0,0 -0.4754315142951218,0.15221815724491858 l -2.3736860136288334 -7.639680803245147" fill="#ff6809" stroke="none" /><path d="M 106.2309692047433 120.05430185196036 l 2.9516329969774353 9.499796441383701 a30.94777712740753,30.94777712740753 0 0,0 -0.5100857213924527,0.15368464355856964 l -2.787672301144737 -9.549196454047996" fill="#ff820b" stroke="none" /><path d="M 105.88484417918355 120.15858648285463 l 2.7934296953161937 9.568918459387021 a30.96832232349416,30.96832232349416 0 0,0 -0.5129959101159036,0.14497776837639947 l -2.628302617095684 -9.61558502110194" fill="#ff820c" stroke="none" /><path d="M 105.53697534728816 120.25689768951611 l 0.16769219406634886 0.6134980572373724 a21.63600356774535,21.63600356774535 0 0,0 -0.36009476315674,0.09510429980006746 l -0.15710698809811144 -0.6162937063410238" fill="#ff0000" stroke="none" /><path d="M 104.13013068566511 120.58985236759428 l 1.9473444732180047 9.708054844746995 a30.901438247345094,30.901438247345094 0 0,0 -0.5224291111485762,0.1001247825433887 l -1.779947747497724 -9.740136825638851" fill="#ff810b" stroke="none" /><path d="M 102.70371172650421 120.8252237178851 l 1.2847975022417726 9.8960977067476 a30.979150988098226,30.979150988098226 0 0,0 -0.5294079879418662,0.06410393460596814 l -1.1142620912485262 -9.916747170078919" fill="#ff820c" stroke="none" /><path d="M 102.34483914955558 120.86867818915974 l 1.1110464911103282 9.888128864007992 a30.950352593583634,30.950352593583634 0 0,0 -0.5299399007721866,0.05493043750856275 l -0.9406739937325388 -9.905788669972313" fill="#ff820c" stroke="none" /><line stroke="#e1ed5e" stroke-width="0.3" x1="102.19456741930631" x2="102.32365962044197" y1="184.97166512339345" y2="189.96999836594603" /><path d="M 102.22038585953345 185.97133177190398 a86.0,86.0 0 0,1 -42.740103519485714,-10.115201625700543" fill="none" id="id31" stroke="none" /><text fill="#e1ed5e" style="font-size:6.75px; font-family:Arial;" text-anchor="middle"><textPath startOffset="22.20632615414155" xlink:href="#id31">July</textPath></text><path d="M 96.58105272829116 120.7198165907248 l -1.4058658069432464 8.51995639478701 a29.635167377428434,29.635167377428434 0 0,0 -0.5025997781937661,-0.08738341379896543 l 1.5523145566090624 -8.494494402467039" fill="#ff700a" stroke="none" /><path d="M 94.11515582081647 120.15858648285463 l -17.65453253755061 60.475759448563906 a84.0,84.0 0 0,0 -1.3845001022390167,-0.4171385235770977 l 18.692907614229874 -60.16290555588108" fill="#4dd2ff" stroke="none" /><line stroke="#e1ed5e" stroke-width="0.3" x1="58.666819895761336" x2="56.23545636021788" y1="174.27360380694188" y2="178.64263932499728" /><path d="M 58.180547188652646 175.14741091055294 a86.0,86.0 0 0,1 -31.652253787137756,-30.449443065178592" fill="none" id="id32" stroke="none" /><text fill="#e1ed5e" style="font-size:6.75px; font-family:Arial;" text-anchor="middle"><textPath startOffset="22.20632615414155" xlink:href="#id32">August</textPath></text><path d="M 89.1626897886671 117.98757091392108 l -10.883526686019582 18.0642801802987 a42.08955598294172,42.08955598294172 0 0,0 -0.6173551765885519,-0.37922997228786726 l 11.192861062540443 -17.874261741182455" fill="#f0ff19" stroke="none" /><line stroke="#e1ed5e" stroke-width="0.3" x1="26.63291911575756" x2="22.317208475507996" y1="142.92168965132927" y2="145.44649492493687" /><path d="M 25.769776987707644 143.4266507060508 a86.0,86.0 0 0,1 -11.730757126820373,-40.83630448921669" fill="none" id="id33" stroke="none" /><text fill="#e1ed5e" style="font-size:6.75px; font-family:Arial;" text-anchor="middle"><textPath startOffset="21.46611528233685" xlink:href="#id33">September</textPath></text><line stroke="#e1ed5e" stroke-width="0.3" x1="15.007084014347285" x2="10.007500721073583" y1="101.09737516637583" y2="101.16192664675087" /><path d="M 14.007167355692545 101.11028546245083 a86.0,86.0 0 0,1 10.666146001902534,-42.60595125391555" fill="none" id="id34" stroke="none" /><text fill="#e1ed5e" style="font-size:6.75px; font-family:Arial;" text-anchor="middle"><textPath startOffset="22.20632615414155" xlink:href="#id34">October</textPath></text><line stroke="#e1ed5e" stroke-width="0.3" x1="26.266209847984243" x2="21.928928074336255" y1="57.711370442889674" y2="55.22380399835377" /><path d="M 25.398753493254645 57.213857153982495 a86.0,86.0 0 0,1 29.58750427330803,-30.492523968695096" fill="none" id="id35" stroke="none" /><text fill="#e1ed5e" style="font-size:6.75px; font-family:Arial;" text-anchor="middle"><textPath startOffset="21.46611528233685" xlink:href="#id35">November</textPath></text><line stroke="#e1ed5e" stroke-width="0.3" x1="56.762969772571076" x2="54.21961505331055" y1="26.818313649435495" y2="22.513508569990535" /><path d="M 56.25429882871897 25.957352633546506 a86.0,86.0 0 0,1 42.265352541879196,-11.944610805530505" fill="none" id="id36" stroke="none" /><text fill="#e1ed5e" style="font-size:6.75px; font-family:Arial;" text-anchor="middle"><textPath startOffset="22.20632615414155" xlink:href="#id36">December</textPath></text></svg>